<svg width="98" height="86" viewBox="0 0 98 86" fill="none" xmlns="http://www.w3.org/2000/svg">
<path d="M92.8166 76.4997H80.8166C80.1469 76.5 79.4889 76.3248 78.9081 75.9914C78.3273 75.658 77.8441 75.1781 77.5066 74.5997L61.5066 47.1697C61.1817 46.6139 60.7445 46.132 60.2229 45.7547C59.7013 45.3774 59.1067 45.113 58.4772 44.9784C57.8476 44.8438 57.1969 44.842 56.5666 44.9731C55.9363 45.1042 55.3403 45.3653 54.8166 45.7397C53.8847 46.4508 53.248 47.4807 53.0284 48.6322C52.8088 49.7836 53.0218 50.9756 53.6266 51.9797L64.0166 69.6397C64.4208 70.3377 64.6331 71.1302 64.6319 71.9367C64.6307 72.7433 64.416 73.5352 64.0098 74.2319C63.6035 74.9287 63.0201 75.5055 62.3187 75.9038C61.6174 76.3021 60.8231 76.5077 60.0166 76.4997H22.0166C20.8458 76.4808 19.7093 76.895 18.8253 77.6628C17.9412 78.4306 17.3719 79.4978 17.2266 80.6597C17.1638 81.3015 17.236 81.9493 17.4386 82.5614C17.6413 83.1736 17.9698 83.7365 18.4031 84.2141C18.8363 84.6917 19.3648 85.0737 19.9544 85.3347C20.544 85.5957 21.1818 85.7297 21.8266 85.7297H92.9866C93.6306 85.7287 94.2676 85.5927 94.8556 85.3317C95.4436 85.0697 95.9716 84.6878 96.4036 84.2104C96.8356 83.733 97.1636 83.1705 97.3656 82.559C97.5676 81.9476 97.6396 81.3006 97.5766 80.6597C97.4316 79.503 96.8666 78.44 95.9896 77.6729C95.1116 76.9058 93.9826 76.4882 92.8166 76.4997Z" fill="white"/>
<path d="M51.1966 21.2597L35.5066 48.6397C34.9195 49.6383 34.7184 50.8174 34.9413 51.9542C35.1643 53.091 35.7958 54.1068 36.7166 54.8097C37.2421 55.1867 37.8408 55.4494 38.474 55.5808C39.1073 55.7123 39.7611 55.7097 40.3932 55.5731C41.0254 55.4365 41.6219 55.1689 42.1444 54.7877C42.6668 54.4065 43.1036 53.92 43.4266 53.3597L53.6766 35.4597C54.0774 34.7639 54.6544 34.186 55.3496 33.7842C56.0448 33.3823 56.8336 33.1708 57.6366 33.1708C58.4396 33.1708 59.2284 33.3823 59.9236 33.7842C60.6188 34.186 61.1958 34.7639 61.5966 35.4597L80.6966 68.5397C81.1028 69.2412 81.686 69.8238 82.388 70.2291C83.0899 70.6345 83.886 70.8485 84.6966 70.8497C85.5056 70.8485 86.3006 70.6347 87.0016 70.2296C87.7026 69.8246 88.2846 69.2425 88.6896 68.5418C89.0946 67.841 89.3086 67.0461 89.3096 66.2367C89.3106 65.4272 89.0996 64.6317 88.6966 63.9297L53.1066 2.30971C52.7848 1.75081 52.3493 1.26561 51.8282 0.885507C51.3071 0.505407 50.7121 0.238907 50.0816 0.103207C49.451 -0.0324928 48.7991 -0.0343928 48.1678 0.0976072C47.5365 0.229607 46.9399 0.492707 46.4166 0.869707C45.4827 1.57451 44.8432 2.60041 44.6216 3.74921C44.4 4.89791 44.6119 6.08811 45.2166 7.08971L51.2166 17.4397C51.5479 18.0225 51.7204 18.682 51.7168 19.3524C51.7133 20.0227 51.5339 20.6804 51.1966 21.2597Z" fill="white"/>
<path d="M49.7166 70.9597C50.4523 70.955 51.1763 70.7747 51.8283 70.4338C52.4803 70.0928 53.0414 69.6011 53.465 68.9995C53.8885 68.3979 54.1623 67.7038 54.2634 66.9751C54.3646 66.2463 54.2903 65.5039 54.0466 64.8097C53.7253 63.9182 53.1331 63.1496 52.353 62.6116C51.5729 62.0736 50.6441 61.7932 49.6966 61.8097H29.0466C28.2404 61.8198 27.4459 61.6159 26.7441 61.2188C26.0424 60.8218 25.4585 60.2458 25.0519 59.5495C24.6453 58.8532 24.4306 58.0616 24.4297 57.2553C24.4288 56.449 24.6416 55.6569 25.0466 54.9597L44.1466 21.8697C44.7579 20.8088 44.9228 19.5486 44.6049 18.3662C44.287 17.1837 43.5125 16.176 42.4516 15.5647C41.3907 14.9534 40.1305 14.7885 38.9481 15.1064C37.7656 15.4243 36.7579 16.1988 36.1466 17.2597L0.616584 78.8897C0.313884 79.415 0.117583 79.9948 0.0389835 80.5959C-0.0396165 81.197 0.000883356 81.8078 0.158283 82.3932C0.315683 82.9787 0.586884 83.5275 0.956284 84.0081C1.32578 84.4888 1.78628 84.8917 2.31158 85.1947C2.83688 85.4977 3.41658 85.6937 4.01778 85.7727C4.61888 85.8507 5.22968 85.8107 5.81508 85.6527C6.40058 85.4957 6.94938 85.2247 7.42998 84.8547C7.91068 84.4855 8.31388 84.025 8.61658 83.4997L14.6966 72.9797C15.0304 72.3995 15.5112 71.9175 16.0905 71.5822C16.6698 71.2469 17.3272 71.0701 17.9966 71.0697L49.7166 70.9597Z" fill="white"/>
</svg>
